<?xml version="1.0" encoding="utf-8" standalone="no"?>
<!DOCTYPE svg PUBLIC "-//W3C//DTD SVG 1.1//EN"
  "http://www.w3.org/Graphics/SVG/1.1/DTD/svg11.dtd">
<!-- Created with matplotlib (http://matplotlib.org/) -->
<svg height="252pt" version="1.1" viewBox="0 0 324 252" width="324pt" xmlns="http://www.w3.org/2000/svg" xmlns:xlink="http://www.w3.org/1999/xlink">
 <defs>
  <style type="text/css">
*{stroke-linecap:butt;stroke-linejoin:round;}
  </style>
 </defs>
 <g id="figure_1">
  <g id="patch_1">
   <path d="
M0 252
L324 252
L324 0
L0 0
z
" style="fill:#ffffff;"/>
  </g>
  <g id="axes_1">
   <g id="patch_2">
    <path d="
M40.5 220.5
L291.6 220.5
L291.6 25.2
L40.5 25.2
z
" style="fill:#ffffff;"/>
   </g>
   <g id="matplotlib.axis_1">
    <g id="xtick_1">
     <g id="line2d_1">
      <defs>
       <path d="
M0 0
L0 -6" id="m6214b81e1c" style="stroke:#262626;"/>
      </defs>
      <g>
       <use style="fill:#262626;stroke:#262626;" x="44.6163934426" xlink:href="#m6214b81e1c" y="220.5"/>
      </g>
     </g>
     <g id="line2d_2">
      <defs>
       <path d="
M0 0
L0 6" id="m44d4eda7dc" style="stroke:#262626;"/>
      </defs>
      <g>
       <use style="fill:#262626;stroke:#262626;" x="44.6163934426" xlink:href="#m44d4eda7dc" y="25.2"/>
      </g>
     </g>
     <g id="text_1">
      <!-- 0 -->
      <defs>
       <path d="
M4.15625 35.2969
Q4.15625 48 6.76562 55.7344
Q9.375 63.4844 14.5156 67.6719
Q19.6719 71.875 27.4844 71.875
Q33.25 71.875 37.5938 69.5469
Q41.9375 67.2344 44.7656 62.8594
Q47.6094 58.5 49.2188 52.2188
Q50.8281 45.9531 50.8281 35.2969
Q50.8281 22.7031 48.2344 14.9688
Q45.6562 7.23438 40.5 3
Q35.3594 -1.21875 27.4844 -1.21875
Q17.1406 -1.21875 11.2344 6.20312
Q4.15625 15.1406 4.15625 35.2969
M13.1875 35.2969
Q13.1875 17.6719 17.3125 11.8281
Q21.4375 6 27.4844 6
Q33.5469 6 37.6719 11.8594
Q41.7969 17.7188 41.7969 35.2969
Q41.7969 52.9844 37.6719 58.7812
Q33.5469 64.5938 27.3906 64.5938
Q21.3438 64.5938 17.7188 59.4688
Q13.1875 52.9375 13.1875 35.2969" id="ArialMT-30"/>
      </defs>
      <g style="fill:#262626;" transform="translate(42.2827996926 234.6578125)scale(0.1 -0.1)">
       <use xlink:href="#ArialMT-30"/>
      </g>
     </g>
    </g>
    <g id="xtick_2">
     <g id="line2d_3">
      <g>
       <use style="fill:#262626;stroke:#262626;" x="99.5016393443" xlink:href="#m6214b81e1c" y="220.5"/>
      </g>
     </g>
     <g id="line2d_4">
      <g>
       <use style="fill:#262626;stroke:#262626;" x="99.5016393443" xlink:href="#m44d4eda7dc" y="25.2"/>
      </g>
     </g>
     <g id="text_2">
      <!-- 20 -->
      <defs>
       <path d="
M50.3438 8.45312
L50.3438 0
L3.03125 0
Q2.9375 3.17188 4.04688 6.10938
Q5.85938 10.9375 9.82812 15.625
Q13.8125 20.3125 21.3438 26.4688
Q33.0156 36.0312 37.1094 41.625
Q41.2188 47.2188 41.2188 52.2031
Q41.2188 57.4219 37.4688 61
Q33.7344 64.5938 27.7344 64.5938
Q21.3906 64.5938 17.5781 60.7812
Q13.7656 56.9844 13.7188 50.25
L4.6875 51.1719
Q5.60938 61.2812 11.6562 66.5781
Q17.7188 71.875 27.9375 71.875
Q38.2344 71.875 44.2344 66.1562
Q50.25 60.4531 50.25 52
Q50.25 47.7031 48.4844 43.5469
Q46.7344 39.4062 42.6562 34.8125
Q38.5781 30.2188 29.1094 22.2188
Q21.1875 15.5781 18.9375 13.2031
Q16.7031 10.8438 15.2344 8.45312
z
" id="ArialMT-32"/>
      </defs>
      <g style="fill:#262626;" transform="translate(94.3266393443 234.6578125)scale(0.1 -0.1)">
       <use xlink:href="#ArialMT-32"/>
       <use x="55.615234375" xlink:href="#ArialMT-30"/>
      </g>
     </g>
    </g>
    <g id="xtick_3">
     <g id="line2d_5">
      <g>
       <use style="fill:#262626;stroke:#262626;" x="154.386885246" xlink:href="#m6214b81e1c" y="220.5"/>
      </g>
     </g>
     <g id="line2d_6">
      <g>
       <use style="fill:#262626;stroke:#262626;" x="154.386885246" xlink:href="#m44d4eda7dc" y="25.2"/>
      </g>
     </g>
     <g id="text_3">
      <!-- 40 -->
      <defs>
       <path d="
M32.3281 0
L32.3281 17.1406
L1.26562 17.1406
L1.26562 25.2031
L33.9375 71.5781
L41.1094 71.5781
L41.1094 25.2031
L50.7812 25.2031
L50.7812 17.1406
L41.1094 17.1406
L41.1094 0
z

M32.3281 25.2031
L32.3281 57.4688
L9.90625 25.2031
z
" id="ArialMT-34"/>
      </defs>
      <g style="fill:#262626;" transform="translate(149.128291496 234.6578125)scale(0.1 -0.1)">
       <use xlink:href="#ArialMT-34"/>
       <use x="55.615234375" xlink:href="#ArialMT-30"/>
      </g>
     </g>
    </g>
    <g id="xtick_4">
     <g id="line2d_7">
      <g>
       <use style="fill:#262626;stroke:#262626;" x="209.272131148" xlink:href="#m6214b81e1c" y="220.5"/>
      </g>
     </g>
     <g id="line2d_8">
      <g>
       <use style="fill:#262626;stroke:#262626;" x="209.272131148" xlink:href="#m44d4eda7dc" y="25.2"/>
      </g>
     </g>
     <g id="text_4">
      <!-- 60 -->
      <defs>
       <path d="
M49.75 54.0469
L41.0156 53.375
Q39.8438 58.5469 37.7031 60.8906
Q34.125 64.6562 28.9062 64.6562
Q24.7031 64.6562 21.5312 62.3125
Q17.3906 59.2812 14.9844 53.4688
Q12.5938 47.6562 12.5 36.9219
Q15.6719 41.75 20.2656 44.0938
Q24.8594 46.4375 29.8906 46.4375
Q38.6719 46.4375 44.8438 39.9688
Q51.0312 33.5 51.0312 23.25
Q51.0312 16.5 48.125 10.7188
Q45.2188 4.9375 40.1406 1.85938
Q35.0625 -1.21875 28.6094 -1.21875
Q17.625 -1.21875 10.6875 6.85938
Q3.76562 14.9375 3.76562 33.5
Q3.76562 54.25 11.4219 63.6719
Q18.1094 71.875 29.4375 71.875
Q37.8906 71.875 43.2812 67.1406
Q48.6875 62.4062 49.75 54.0469
M13.875 23.1875
Q13.875 18.6562 15.7969 14.5
Q17.7188 10.3594 21.1875 8.17188
Q24.6562 6 28.4688 6
Q34.0312 6 38.0312 10.4844
Q42.0469 14.9844 42.0469 22.7031
Q42.0469 30.125 38.0781 34.3906
Q34.125 38.6719 28.125 38.6719
Q22.1719 38.6719 18.0156 34.3906
Q13.875 30.125 13.875 23.1875" id="ArialMT-36"/>
      </defs>
      <g style="fill:#262626;" transform="translate(204.138537398 234.6578125)scale(0.1 -0.1)">
       <use xlink:href="#ArialMT-36"/>
       <use x="55.615234375" xlink:href="#ArialMT-30"/>
      </g>
     </g>
    </g>
    <g id="xtick_5">
     <g id="line2d_9">
      <g>
       <use style="fill:#262626;stroke:#262626;" x="264.157377049" xlink:href="#m6214b81e1c" y="220.5"/>
      </g>
     </g>
     <g id="line2d_10">
      <g>
       <use style="fill:#262626;stroke:#262626;" x="264.157377049" xlink:href="#m44d4eda7dc" y="25.2"/>
      </g>
     </g>
     <g id="text_5">
      <!-- 80 -->
      <defs>
       <path d="
M17.6719 38.8125
Q12.2031 40.8281 9.5625 44.5312
Q6.9375 48.25 6.9375 53.4219
Q6.9375 61.2344 12.5469 66.5469
Q18.1719 71.875 27.4844 71.875
Q36.8594 71.875 42.5781 66.4219
Q48.2969 60.9844 48.2969 53.1719
Q48.2969 48.1875 45.6719 44.5
Q43.0625 40.8281 37.75 38.8125
Q44.3438 36.6719 47.7812 31.875
Q51.2188 27.0938 51.2188 20.4531
Q51.2188 11.2812 44.7188 5.03125
Q38.2344 -1.21875 27.6406 -1.21875
Q17.0469 -1.21875 10.5469 5.04688
Q4.04688 11.3281 4.04688 20.7031
Q4.04688 27.6875 7.59375 32.3906
Q11.1406 37.1094 17.6719 38.8125
M15.9219 53.7188
Q15.9219 48.6406 19.1875 45.4062
Q22.4688 42.1875 27.6875 42.1875
Q32.7656 42.1875 36.0156 45.375
Q39.2656 48.5781 39.2656 53.2188
Q39.2656 58.0625 35.9062 61.3594
Q32.5625 64.6562 27.5938 64.6562
Q22.5625 64.6562 19.2344 61.4219
Q15.9219 58.2031 15.9219 53.7188
M13.0938 20.6562
Q13.0938 16.8906 14.875 13.375
Q16.6562 9.85938 20.1719 7.92188
Q23.6875 6 27.7344 6
Q34.0312 6 38.125 10.0469
Q42.2344 14.1094 42.2344 20.3594
Q42.2344 26.7031 38.0156 30.8594
Q33.7969 35.0156 27.4375 35.0156
Q21.2344 35.0156 17.1562 30.9062
Q13.0938 26.8125 13.0938 20.6562" id="ArialMT-38"/>
      </defs>
      <g style="fill:#262626;" transform="translate(259.037845799 234.6578125)scale(0.1 -0.1)">
       <use xlink:href="#ArialMT-38"/>
       <use x="55.615234375" xlink:href="#ArialMT-30"/>
      </g>
     </g>
    </g>
    <g id="text_6">
     <!-- Inclination -->
     <defs>
      <path d="
M9.32812 0
L9.32812 71.5781
L18.7969 71.5781
L18.7969 0
z
" id="ArialMT-49"/>
      <path d="
M40.4375 19
L49.0781 17.875
Q47.6562 8.9375 41.8125 3.875
Q35.9844 -1.17188 27.4844 -1.17188
Q16.8438 -1.17188 10.375 5.78125
Q3.90625 12.75 3.90625 25.7344
Q3.90625 34.125 6.6875 40.4219
Q9.46875 46.7344 15.1562 49.875
Q20.8438 53.0312 27.5469 53.0312
Q35.9844 53.0312 41.3594 48.75
Q46.7344 44.4844 48.25 36.625
L39.7031 35.2969
Q38.4844 40.5312 35.375 43.1562
Q32.2812 45.7969 27.875 45.7969
Q21.2344 45.7969 17.0781 41.0312
Q12.9375 36.2812 12.9375 25.9844
Q12.9375 15.5312 16.9375 10.7969
Q20.9531 6.0625 27.3906 6.0625
Q32.5625 6.0625 36.0312 9.23438
Q39.5 12.4062 40.4375 19" id="ArialMT-63"/>
      <path d="
M40.4375 6.39062
Q35.5469 2.25 31.0312 0.53125
Q26.5156 -1.17188 21.3438 -1.17188
Q12.7969 -1.17188 8.20312 3
Q3.60938 7.17188 3.60938 13.6719
Q3.60938 17.4844 5.34375 20.625
Q7.07812 23.7812 9.89062 25.6875
Q12.7031 27.5938 16.2188 28.5625
Q18.7969 29.25 24.0312 29.8906
Q34.6719 31.1562 39.7031 32.9062
Q39.75 34.7188 39.75 35.2031
Q39.75 40.5781 37.25 42.7812
Q33.8906 45.75 27.25 45.75
Q21.0469 45.75 18.0938 43.5781
Q15.1406 41.4062 13.7188 35.8906
L5.125 37.0625
Q6.29688 42.5781 8.98438 45.9688
Q11.6719 49.3594 16.75 51.1875
Q21.8281 53.0312 28.5156 53.0312
Q35.1562 53.0312 39.2969 51.4688
Q43.4531 49.9062 45.4062 47.5312
Q47.3594 45.1719 48.1406 41.5469
Q48.5781 39.3125 48.5781 33.4531
L48.5781 21.7344
Q48.5781 9.46875 49.1406 6.21875
Q49.7031 2.98438 51.375 0
L42.1875 0
Q40.8281 2.73438 40.4375 6.39062
M39.7031 26.0312
Q34.9062 24.0781 25.3438 22.7031
Q19.9219 21.9219 17.6719 20.9375
Q15.4375 19.9688 14.2031 18.0938
Q12.9844 16.2188 12.9844 13.9219
Q12.9844 10.4062 15.6406 8.0625
Q18.3125 5.71875 23.4375 5.71875
Q28.5156 5.71875 32.4688 7.9375
Q36.4219 10.1562 38.2812 14.0156
Q39.7031 17 39.7031 22.7969
z
" id="ArialMT-61"/>
      <path d="
M25.7812 7.85938
L27.0469 0.09375
Q23.3438 -0.6875 20.4062 -0.6875
Q15.625 -0.6875 12.9844 0.828125
Q10.3594 2.34375 9.28125 4.8125
Q8.20312 7.28125 8.20312 15.1875
L8.20312 45.0156
L1.76562 45.0156
L1.76562 51.8594
L8.20312 51.8594
L8.20312 64.7031
L16.9375 69.9688
L16.9375 51.8594
L25.7812 51.8594
L25.7812 45.0156
L16.9375 45.0156
L16.9375 14.7031
Q16.9375 10.9375 17.4062 9.85938
Q17.875 8.79688 18.9219 8.15625
Q19.9688 7.51562 21.9219 7.51562
Q23.3906 7.51562 25.7812 7.85938" id="ArialMT-74"/>
      <path d="
M6.64062 61.4688
L6.64062 71.5781
L15.4375 71.5781
L15.4375 61.4688
z

M6.64062 0
L6.64062 51.8594
L15.4375 51.8594
L15.4375 0
z
" id="ArialMT-69"/>
      <path d="
M6.39062 0
L6.39062 71.5781
L15.1875 71.5781
L15.1875 0
z
" id="ArialMT-6c"/>
      <path d="
M3.32812 25.9219
Q3.32812 40.3281 11.3281 47.2656
Q18.0156 53.0312 27.6406 53.0312
Q38.3281 53.0312 45.1094 46.0156
Q51.9062 39.0156 51.9062 26.6562
Q51.9062 16.6562 48.9062 10.9062
Q45.9062 5.17188 40.1562 2
Q34.4219 -1.17188 27.6406 -1.17188
Q16.75 -1.17188 10.0312 5.8125
Q3.32812 12.7969 3.32812 25.9219
M12.3594 25.9219
Q12.3594 15.9688 16.7031 11.0156
Q21.0469 6.0625 27.6406 6.0625
Q34.1875 6.0625 38.5312 11.0312
Q42.875 16.0156 42.875 26.2188
Q42.875 35.8438 38.5 40.7969
Q34.125 45.75 27.6406 45.75
Q21.0469 45.75 16.7031 40.8125
Q12.3594 35.8906 12.3594 25.9219" id="ArialMT-6f"/>
      <path d="
M6.59375 0
L6.59375 51.8594
L14.5 51.8594
L14.5 44.4844
Q20.2188 53.0312 31 53.0312
Q35.6875 53.0312 39.625 51.3438
Q43.5625 49.6562 45.5156 46.9219
Q47.4688 44.1875 48.25 40.4375
Q48.7344 37.9844 48.7344 31.8906
L48.7344 0
L39.9375 0
L39.9375 31.5469
Q39.9375 36.9219 38.9062 39.5781
Q37.8906 42.2344 35.2812 43.8125
Q32.6719 45.4062 29.1562 45.4062
Q23.5312 45.4062 19.4531 41.8438
Q15.375 38.2812 15.375 28.3281
L15.375 0
z
" id="ArialMT-6e"/>
     </defs>
     <g style="fill:#262626;" transform="translate(140.00625 250.2346875)scale(0.12 -0.12)">
      <use xlink:href="#ArialMT-49"/>
      <use x="27.783203125" xlink:href="#ArialMT-6e"/>
      <use x="83.3984375" xlink:href="#ArialMT-63"/>
      <use x="133.3984375" xlink:href="#ArialMT-6c"/>
      <use x="155.615234375" xlink:href="#ArialMT-69"/>
      <use x="177.83203125" xlink:href="#ArialMT-6e"/>
      <use x="233.447265625" xlink:href="#ArialMT-61"/>
      <use x="289.0625" xlink:href="#ArialMT-74"/>
      <use x="316.845703125" xlink:href="#ArialMT-69"/>
      <use x="339.0625" xlink:href="#ArialMT-6f"/>
      <use x="394.677734375" xlink:href="#ArialMT-6e"/>
     </g>
    </g>
   </g>
   <g id="matplotlib.axis_2">
    <g id="ytick_1">
     <g id="line2d_11">
      <defs>
       <path d="
M0 0
L6 0" id="m0afc27f78c" style="stroke:#262626;"/>
      </defs>
      <g>
       <use style="fill:#262626;stroke:#262626;" x="40.5" xlink:href="#m0afc27f78c" y="220.5"/>
      </g>
     </g>
     <g id="line2d_12">
      <defs>
       <path d="
M0 0
L-6 0" id="m0dfa6ce036" style="stroke:#262626;"/>
      </defs>
      <g>
       <use style="fill:#262626;stroke:#262626;" x="291.6" xlink:href="#m0dfa6ce036" y="220.5"/>
      </g>
     </g>
     <g id="text_7">
      <!-- 1.0 -->
      <defs>
       <path d="
M37.25 0
L28.4688 0
L28.4688 56
Q25.2969 52.9844 20.1406 49.9531
Q14.9844 46.9219 10.8906 45.4062
L10.8906 53.9062
Q18.2656 57.375 23.7812 62.2969
Q29.2969 67.2344 31.5938 71.875
L37.25 71.875
z
" id="ArialMT-31"/>
       <path d="
M9.07812 0
L9.07812 10.0156
L19.0938 10.0156
L19.0938 0
z
" id="ArialMT-2e"/>
      </defs>
      <g style="fill:#262626;" transform="translate(21.1671875 223.08515625)scale(0.1 -0.1)">
       <use xlink:href="#ArialMT-31"/>
       <use x="55.615234375" xlink:href="#ArialMT-2e"/>
       <use x="83.3984375" xlink:href="#ArialMT-30"/>
      </g>
     </g>
    </g>
    <g id="ytick_2">
     <g id="line2d_13">
      <g>
       <use style="fill:#262626;stroke:#262626;" x="40.5" xlink:href="#m0afc27f78c" y="187.95"/>
      </g>
     </g>
     <g id="line2d_14">
      <g>
       <use style="fill:#262626;stroke:#262626;" x="291.6" xlink:href="#m0dfa6ce036" y="187.95"/>
      </g>
     </g>
     <g id="text_8">
      <!-- 1.5 -->
      <defs>
       <path d="
M4.15625 18.75
L13.375 19.5312
Q14.4062 12.7969 18.1406 9.39062
Q21.875 6 27.1562 6
Q33.5 6 37.8906 10.7812
Q42.2812 15.5781 42.2812 23.4844
Q42.2812 31 38.0625 35.3438
Q33.8438 39.7031 27 39.7031
Q22.75 39.7031 19.3281 37.7656
Q15.9219 35.8438 13.9688 32.7656
L5.71875 33.8438
L12.6406 70.6094
L48.25 70.6094
L48.25 62.2031
L19.6719 62.2031
L15.8281 42.9688
Q22.2656 47.4688 29.3438 47.4688
Q38.7188 47.4688 45.1562 40.9688
Q51.6094 34.4688 51.6094 24.2656
Q51.6094 14.5469 45.9531 7.46875
Q39.0625 -1.21875 27.1562 -1.21875
Q17.3906 -1.21875 11.2031 4.25
Q5.03125 9.71875 4.15625 18.75" id="ArialMT-35"/>
      </defs>
      <g style="fill:#262626;" transform="translate(21.0890625 190.53515625)scale(0.1 -0.1)">
       <use xlink:href="#ArialMT-31"/>
       <use x="55.615234375" xlink:href="#ArialMT-2e"/>
       <use x="83.3984375" xlink:href="#ArialMT-35"/>
      </g>
     </g>
    </g>
    <g id="ytick_3">
     <g id="line2d_15">
      <g>
       <use style="fill:#262626;stroke:#262626;" x="40.5" xlink:href="#m0afc27f78c" y="155.4"/>
      </g>
     </g>
     <g id="line2d_16">
      <g>
       <use style="fill:#262626;stroke:#262626;" x="291.6" xlink:href="#m0dfa6ce036" y="155.4"/>
      </g>
     </g>
     <g id="text_9">
      <!-- 2.0 -->
      <g style="fill:#262626;" transform="translate(20.371875 157.98515625)scale(0.1 -0.1)">
       <use xlink:href="#ArialMT-32"/>
       <use x="55.615234375" xlink:href="#ArialMT-2e"/>
       <use x="83.3984375" xlink:href="#ArialMT-30"/>
      </g>
     </g>
    </g>
    <g id="ytick_4">
     <g id="line2d_17">
      <g>
       <use style="fill:#262626;stroke:#262626;" x="40.5" xlink:href="#m0afc27f78c" y="122.85"/>
      </g>
     </g>
     <g id="line2d_18">
      <g>
       <use style="fill:#262626;stroke:#262626;" x="291.6" xlink:href="#m0dfa6ce036" y="122.85"/>
      </g>
     </g>
     <g id="text_10">
      <!-- 2.5 -->
      <g style="fill:#262626;" transform="translate(20.29375 125.43515625)scale(0.1 -0.1)">
       <use xlink:href="#ArialMT-32"/>
       <use x="55.615234375" xlink:href="#ArialMT-2e"/>
       <use x="83.3984375" xlink:href="#ArialMT-35"/>
      </g>
     </g>
    </g>
    <g id="ytick_5">
     <g id="line2d_19">
      <g>
       <use style="fill:#262626;stroke:#262626;" x="40.5" xlink:href="#m0afc27f78c" y="90.3"/>
      </g>
     </g>
     <g id="line2d_20">
      <g>
       <use style="fill:#262626;stroke:#262626;" x="291.6" xlink:href="#m0dfa6ce036" y="90.3"/>
      </g>
     </g>
     <g id="text_11">
      <!-- 3.0 -->
      <defs>
       <path d="
M4.20312 18.8906
L12.9844 20.0625
Q14.5 12.5938 18.1406 9.29688
Q21.7812 6 27 6
Q33.2031 6 37.4688 10.2969
Q41.75 14.5938 41.75 20.9531
Q41.75 27 37.7969 30.9219
Q33.8438 34.8594 27.7344 34.8594
Q25.25 34.8594 21.5312 33.8906
L22.5156 41.6094
Q23.3906 41.5 23.9219 41.5
Q29.5469 41.5 34.0312 44.4219
Q38.5312 47.3594 38.5312 53.4688
Q38.5312 58.2969 35.25 61.4688
Q31.9844 64.6562 26.8125 64.6562
Q21.6875 64.6562 18.2656 61.4219
Q14.8438 58.2031 13.875 51.7656
L5.07812 53.3281
Q6.6875 62.1562 12.3906 67.0156
Q18.1094 71.875 26.6094 71.875
Q32.4688 71.875 37.3906 69.3594
Q42.3281 66.8438 44.9375 62.5
Q47.5625 58.1562 47.5625 53.2656
Q47.5625 48.6406 45.0625 44.8281
Q42.5781 41.0156 37.7031 38.7656
Q44.0469 37.3125 47.5625 32.6875
Q51.0781 28.0781 51.0781 21.1406
Q51.0781 11.7656 44.2344 5.25
Q37.4062 -1.26562 26.9531 -1.26562
Q17.5312 -1.26562 11.2969 4.34375
Q5.07812 9.96875 4.20312 18.8906" id="ArialMT-33"/>
      </defs>
      <g style="fill:#262626;" transform="translate(20.4984375 92.88515625)scale(0.1 -0.1)">
       <use xlink:href="#ArialMT-33"/>
       <use x="55.615234375" xlink:href="#ArialMT-2e"/>
       <use x="83.3984375" xlink:href="#ArialMT-30"/>
      </g>
     </g>
    </g>
    <g id="ytick_6">
     <g id="line2d_21">
      <g>
       <use style="fill:#262626;stroke:#262626;" x="40.5" xlink:href="#m0afc27f78c" y="57.75"/>
      </g>
     </g>
     <g id="line2d_22">
      <g>
       <use style="fill:#262626;stroke:#262626;" x="291.6" xlink:href="#m0dfa6ce036" y="57.75"/>
      </g>
     </g>
     <g id="text_12">
      <!-- 3.5 -->
      <g style="fill:#262626;" transform="translate(20.4203125 60.33515625)scale(0.1 -0.1)">
       <use xlink:href="#ArialMT-33"/>
       <use x="55.615234375" xlink:href="#ArialMT-2e"/>
       <use x="83.3984375" xlink:href="#ArialMT-35"/>
      </g>
     </g>
    </g>
    <g id="ytick_7">
     <g id="line2d_23">
      <g>
       <use style="fill:#262626;stroke:#262626;" x="40.5" xlink:href="#m0afc27f78c" y="25.2"/>
      </g>
     </g>
     <g id="line2d_24">
      <g>
       <use style="fill:#262626;stroke:#262626;" x="291.6" xlink:href="#m0dfa6ce036" y="25.2"/>
      </g>
     </g>
     <g id="text_13">
      <!-- 4.0 -->
      <g style="fill:#262626;" transform="translate(20.2046875 27.78515625)scale(0.1 -0.1)">
       <use xlink:href="#ArialMT-34"/>
       <use x="55.615234375" xlink:href="#ArialMT-2e"/>
       <use x="83.3984375" xlink:href="#ArialMT-30"/>
      </g>
     </g>
    </g>
    <g id="text_14">
     <!-- Elongation -->
     <defs>
      <path d="
M4.98438 -4.29688
L13.5312 -5.5625
Q14.0625 -9.51562 16.5 -11.3281
Q19.7812 -13.7656 25.4375 -13.7656
Q31.5469 -13.7656 34.8594 -11.3281
Q38.1875 -8.89062 39.3594 -4.5
Q40.0469 -1.8125 39.9844 6.78125
Q34.2344 0 25.6406 0
Q14.9375 0 9.07812 7.71875
Q3.21875 15.4375 3.21875 26.2188
Q3.21875 33.6406 5.90625 39.9062
Q8.59375 46.1875 13.6875 49.6094
Q18.7969 53.0312 25.6875 53.0312
Q34.8594 53.0312 40.8281 45.6094
L40.8281 51.8594
L48.9219 51.8594
L48.9219 7.03125
Q48.9219 -5.07812 46.4531 -10.125
Q44 -15.1875 38.6406 -18.1094
Q33.2969 -21.0469 25.4844 -21.0469
Q16.2188 -21.0469 10.5 -16.875
Q4.78125 -12.7031 4.98438 -4.29688
M12.25 26.8594
Q12.25 16.6562 16.2969 11.9688
Q20.3594 7.28125 26.4688 7.28125
Q32.5156 7.28125 36.6094 11.9375
Q40.7188 16.6094 40.7188 26.5625
Q40.7188 36.0781 36.5 40.9062
Q32.2812 45.75 26.3125 45.75
Q20.4531 45.75 16.3438 40.9844
Q12.25 36.2344 12.25 26.8594" id="ArialMT-67"/>
      <path d="
M7.90625 0
L7.90625 71.5781
L59.6719 71.5781
L59.6719 63.1406
L17.3906 63.1406
L17.3906 41.2188
L56.9844 41.2188
L56.9844 32.8125
L17.3906 32.8125
L17.3906 8.45312
L61.3281 8.45312
L61.3281 0
z
" id="ArialMT-45"/>
     </defs>
     <g style="fill:#262626;" transform="translate(12.6790625 150.3178125)rotate(-90.0)scale(0.12 -0.12)">
      <use xlink:href="#ArialMT-45"/>
      <use x="66.69921875" xlink:href="#ArialMT-6c"/>
      <use x="88.916015625" xlink:href="#ArialMT-6f"/>
      <use x="144.53125" xlink:href="#ArialMT-6e"/>
      <use x="200.146484375" xlink:href="#ArialMT-67"/>
      <use x="255.76171875" xlink:href="#ArialMT-61"/>
      <use x="311.376953125" xlink:href="#ArialMT-74"/>
      <use x="339.16015625" xlink:href="#ArialMT-69"/>
      <use x="361.376953125" xlink:href="#ArialMT-6f"/>
      <use x="416.9921875" xlink:href="#ArialMT-6e"/>
     </g>
    </g>
   </g>
   <g id="LineCollection_1">
    <path clip-path="url(#pfe815d29e3)" d="
M49.9082 100.683
L57.7999 100.683" style="fill:none;stroke:#4c72b0;stroke-width:1.75;"/>
   </g>
   <g id="LineCollection_2">
    <path clip-path="url(#pfe815d29e3)" d="
M47.0363 160.068
L47.0363 -1" style="fill:none;stroke:#4c72b0;stroke-width:1.75;"/>
   </g>
   <g id="LineCollection_3">
    <path clip-path="url(#pfe815d29e3)" d="
M44.8908 107.877
L60.2587 107.877" style="fill:none;stroke:#55a868;stroke-width:1.75;"/>
   </g>
   <g id="LineCollection_4">
    <path clip-path="url(#pfe815d29e3)" d="
M48.8974 189.252
L48.8974 -1" style="fill:none;stroke:#55a868;stroke-width:1.75;"/>
   </g>
   <g id="LineCollection_5">
    <path clip-path="url(#pfe815d29e3)" d="
M45.6716 109.439
L64.551 109.439" style="fill:none;stroke:#c44e52;stroke-width:1.75;"/>
   </g>
   <g id="LineCollection_6">
    <path clip-path="url(#pfe815d29e3)" d="
M54.3934 171.974
L54.3934 -1" style="fill:none;stroke:#c44e52;stroke-width:1.75;"/>
   </g>
   <g id="LineCollection_7">
    <path clip-path="url(#pfe815d29e3)" d="
M156.831 173.322
L171.365 173.322" style="fill:none;stroke:#8172b2;stroke-width:1.75;"/>
   </g>
   <g id="LineCollection_8">
    <path clip-path="url(#pfe815d29e3)" d="
M164.323 208.313
L164.323 84.6884" style="fill:none;stroke:#8172b2;stroke-width:1.75;"/>
   </g>
   <g id="LineCollection_9">
    <path clip-path="url(#pfe815d29e3)" d="
M166.462 159.957
L176.067 159.957" style="fill:none;stroke:#ccb974;stroke-width:1.75;"/>
   </g>
   <g id="LineCollection_10">
    <path clip-path="url(#pfe815d29e3)" d="
M171.127 184.044
L171.127 124.152" style="fill:none;stroke:#ccb974;stroke-width:1.75;"/>
   </g>
   <g id="LineCollection_11">
    <path clip-path="url(#pfe815d29e3)" d="
M205.43 169.722
L217.779 169.722" style="fill:none;stroke:#64b5cd;stroke-width:1.75;"/>
   </g>
   <g id="LineCollection_12">
    <path clip-path="url(#pfe815d29e3)" d="
M211.742 204.876
L211.742 96.81" style="fill:none;stroke:#64b5cd;stroke-width:1.75;"/>
   </g>
   <g id="LineCollection_13">
    <path clip-path="url(#pfe815d29e3)" d="
M228.482 206.178
L240.557 206.178" style="fill:none;stroke:#4c72b0;stroke-width:1.75;"/>
   </g>
   <g id="LineCollection_14">
    <path clip-path="url(#pfe815d29e3)" d="
M234.519 216.594
L234.519 133.917" style="fill:none;stroke:#4c72b0;stroke-width:1.75;"/>
   </g>
   <g id="line2d_25">
    <defs>
     <path d="
M0 3
L0 -3" id="m328c24c56f"/>
    </defs>
    <g clip-path="url(#pfe815d29e3)">
     <use style="fill:#4c72b0;" x="49.9081544262" xlink:href="#m328c24c56f" y="100.68345"/>
    </g>
   </g>
   <g id="line2d_26">
    <g clip-path="url(#pfe815d29e3)">
     <use style="fill:#4c72b0;" x="57.7998714575" xlink:href="#m328c24c56f" y="100.68345"/>
    </g>
   </g>
   <g id="line2d_27">
    <defs>
     <path d="
M3 1.83697e-16
L-3 -1.83697e-16" id="m7ac7130200"/>
    </defs>
    <g clip-path="url(#pfe815d29e3)">
     <use style="fill:#4c72b0;" x="47.0363258837" xlink:href="#m7ac7130200" y="160.06767"/>
    </g>
   </g>
   <g id="line2d_28">
    <g clip-path="url(#pfe815d29e3)">
     <use style="fill:#4c72b0;" x="47.0363258837" xlink:href="#m7ac7130200" y="-35.74662"/>
    </g>
   </g>
   <g id="line2d_29">
    <defs>
     <path d="
M0 5
C1.32602 5 2.5979 4.47317 3.53553 3.53553
C4.47317 2.5979 5 1.32602 5 0
C5 -1.32602 4.47317 -2.5979 3.53553 -3.53553
C2.5979 -4.47317 1.32602 -5 0 -5
C-1.32602 -5 -2.5979 -4.47317 -3.53553 -3.53553
C-4.47317 -2.5979 -5 -1.32602 -5 0
C-5 1.32602 -4.47317 2.5979 -3.53553 3.53553
C-2.5979 4.47317 -1.32602 5 0 5
z
" id="m4cece101e1"/>
    </defs>
    <g clip-path="url(#pfe815d29e3)">
     <use style="fill:#4c72b0;" x="47.0363258837" xlink:href="#m4cece101e1" y="100.68345"/>
    </g>
   </g>
   <g id="line2d_30">
    <defs>
     <path d="
M0 3
L0 -3" id="mcd9d4758c5"/>
    </defs>
    <g clip-path="url(#pfe815d29e3)">
     <use style="fill:#55a868;" x="44.8908196721" xlink:href="#mcd9d4758c5" y="107.877"/>
    </g>
   </g>
   <g id="line2d_31">
    <g clip-path="url(#pfe815d29e3)">
     <use style="fill:#55a868;" x="60.2586885246" xlink:href="#mcd9d4758c5" y="107.877"/>
    </g>
   </g>
   <g id="line2d_32">
    <defs>
     <path d="
M3 1.83697e-16
L-3 -1.83697e-16" id="m5f8d520f21"/>
    </defs>
    <g clip-path="url(#pfe815d29e3)">
     <use style="fill:#55a868;" x="48.897442623" xlink:href="#m5f8d520f21" y="189.252"/>
    </g>
   </g>
   <g id="line2d_33">
    <g clip-path="url(#pfe815d29e3)">
     <use style="fill:#55a868;" x="48.897442623" xlink:href="#m5f8d520f21" y="-87.423"/>
    </g>
   </g>
   <g id="line2d_34">
    <defs>
     <path d="
M0 5
C1.32602 5 2.5979 4.47317 3.53553 3.53553
C4.47317 2.5979 5 1.32602 5 0
C5 -1.32602 4.47317 -2.5979 3.53553 -3.53553
C2.5979 -4.47317 1.32602 -5 0 -5
C-1.32602 -5 -2.5979 -4.47317 -3.53553 -3.53553
C-4.47317 -2.5979 -5 -1.32602 -5 0
C-5 1.32602 -4.47317 2.5979 -3.53553 3.53553
C-2.5979 4.47317 -1.32602 5 0 5
z
" id="ma5e90d334b"/>
    </defs>
    <g clip-path="url(#pfe815d29e3)">
     <use style="fill:#55a868;" x="48.897442623" xlink:href="#ma5e90d334b" y="107.877"/>
    </g>
   </g>
   <g id="line2d_35">
    <defs>
     <path d="
M0 3
L0 -3" id="m50e53eb73a"/>
    </defs>
    <g clip-path="url(#pfe815d29e3)">
     <use style="fill:#c44e52;" x="45.6715622951" xlink:href="#m50e53eb73a" y="109.4394"/>
    </g>
   </g>
   <g id="line2d_36">
    <g clip-path="url(#pfe815d29e3)">
     <use style="fill:#c44e52;" x="64.5509891803" xlink:href="#m50e53eb73a" y="109.4394"/>
    </g>
   </g>
   <g id="line2d_37">
    <defs>
     <path d="
M3 1.83697e-16
L-3 -1.83697e-16" id="m0e00f869eb"/>
    </defs>
    <g clip-path="url(#pfe815d29e3)">
     <use style="fill:#c44e52;" x="54.3933735219" xlink:href="#m0e00f869eb" y="171.97446"/>
    </g>
   </g>
   <g id="line2d_38">
    <g clip-path="url(#pfe815d29e3)">
     <use style="fill:#c44e52;" x="54.3933735219" xlink:href="#m0e00f869eb" y="-49.02702"/>
    </g>
   </g>
   <g id="line2d_39">
    <defs>
     <path d="
M-5 5
L5 5
L5 -5
L-5 -5
z
" id="m838509e953"/>
    </defs>
    <g clip-path="url(#pfe815d29e3)">
     <use style="fill:#c44e52;" x="54.3933735219" xlink:href="#m838509e953" y="109.4394"/>
    </g>
   </g>
   <g id="line2d_40">
    <defs>
     <path d="
M0 3
L0 -3" id="m229199b47d"/>
    </defs>
    <g clip-path="url(#pfe815d29e3)">
     <use style="fill:#8172b2;" x="156.831199672" xlink:href="#m229199b47d" y="173.32203"/>
    </g>
   </g>
   <g id="line2d_41">
    <g clip-path="url(#pfe815d29e3)">
     <use style="fill:#8172b2;" x="171.364812787" xlink:href="#m229199b47d" y="173.32203"/>
    </g>
   </g>
   <g id="line2d_42">
    <defs>
     <path d="
M3 1.83697e-16
L-3 -1.83697e-16" id="mad6bdebe35"/>
    </defs>
    <g clip-path="url(#pfe815d29e3)">
     <use style="fill:#8172b2;" x="164.322634124" xlink:href="#mad6bdebe35" y="208.31328"/>
    </g>
   </g>
   <g id="line2d_43">
    <g clip-path="url(#pfe815d29e3)">
     <use style="fill:#8172b2;" x="164.322634124" xlink:href="#mad6bdebe35" y="84.68838"/>
    </g>
   </g>
   <g id="line2d_44">
    <defs>
     <path d="
M-5 5
L5 5
L5 -5
L-5 -5
z
" id="m2be5bf9f90"/>
    </defs>
    <g clip-path="url(#pfe815d29e3)">
     <use style="fill:#8172b2;" x="164.322634124" xlink:href="#m2be5bf9f90" y="173.32203"/>
    </g>
   </g>
   <g id="line2d_45">
    <defs>
     <path d="
M0 3
L0 -3" id="m1acfb8dcb1"/>
    </defs>
    <g clip-path="url(#pfe815d29e3)">
     <use style="fill:#ccb974;" x="166.461639344" xlink:href="#m1acfb8dcb1" y="159.957"/>
    </g>
   </g>
   <g id="line2d_46">
    <g clip-path="url(#pfe815d29e3)">
     <use style="fill:#ccb974;" x="176.066557377" xlink:href="#m1acfb8dcb1" y="159.957"/>
    </g>
   </g>
   <g id="line2d_47">
    <defs>
     <path d="
M3 1.83697e-16
L-3 -1.83697e-16" id="m7624ec029c"/>
    </defs>
    <g clip-path="url(#pfe815d29e3)">
     <use style="fill:#ccb974;" x="171.126885246" xlink:href="#m7624ec029c" y="184.044"/>
    </g>
   </g>
   <g id="line2d_48">
    <g clip-path="url(#pfe815d29e3)">
     <use style="fill:#ccb974;" x="171.126885246" xlink:href="#m7624ec029c" y="124.152"/>
    </g>
   </g>
   <g id="line2d_49">
    <defs>
     <path d="
M0 5
C1.32602 5 2.5979 4.47317 3.53553 3.53553
C4.47317 2.5979 5 1.32602 5 0
C5 -1.32602 4.47317 -2.5979 3.53553 -3.53553
C2.5979 -4.47317 1.32602 -5 0 -5
C-1.32602 -5 -2.5979 -4.47317 -3.53553 -3.53553
C-4.47317 -2.5979 -5 -1.32602 -5 0
C-5 1.32602 -4.47317 2.5979 -3.53553 3.53553
C-2.5979 4.47317 -1.32602 5 0 5
z
" id="m51ead04f67"/>
    </defs>
    <g clip-path="url(#pfe815d29e3)">
     <use style="fill:#ccb974;" x="171.126885246" xlink:href="#m51ead04f67" y="159.957"/>
    </g>
   </g>
   <g id="line2d_50">
    <defs>
     <path d="
M0 3
L0 -3" id="m548472b1cf"/>
    </defs>
    <g clip-path="url(#pfe815d29e3)">
     <use style="fill:#64b5cd;" x="205.430163934" xlink:href="#m548472b1cf" y="169.722"/>
    </g>
   </g>
   <g id="line2d_51">
    <g clip-path="url(#pfe815d29e3)">
     <use style="fill:#64b5cd;" x="217.779344262" xlink:href="#m548472b1cf" y="169.722"/>
    </g>
   </g>
   <g id="line2d_52">
    <defs>
     <path d="
M3 1.83697e-16
L-3 -1.83697e-16" id="m3ede7d3480"/>
    </defs>
    <g clip-path="url(#pfe815d29e3)">
     <use style="fill:#64b5cd;" x="211.741967213" xlink:href="#m3ede7d3480" y="204.876"/>
    </g>
   </g>
   <g id="line2d_53">
    <g clip-path="url(#pfe815d29e3)">
     <use style="fill:#64b5cd;" x="211.741967213" xlink:href="#m3ede7d3480" y="96.81"/>
    </g>
   </g>
   <g id="line2d_54">
    <defs>
     <path d="
M0 5
C1.32602 5 2.5979 4.47317 3.53553 3.53553
C4.47317 2.5979 5 1.32602 5 0
C5 -1.32602 4.47317 -2.5979 3.53553 -3.53553
C2.5979 -4.47317 1.32602 -5 0 -5
C-1.32602 -5 -2.5979 -4.47317 -3.53553 -3.53553
C-4.47317 -2.5979 -5 -1.32602 -5 0
C-5 1.32602 -4.47317 2.5979 -3.53553 3.53553
C-2.5979 4.47317 -1.32602 5 0 5
z
" id="m9dbe2ddf97"/>
    </defs>
    <g clip-path="url(#pfe815d29e3)">
     <use style="fill:#64b5cd;" x="211.741967213" xlink:href="#m9dbe2ddf97" y="169.722"/>
    </g>
   </g>
   <g id="line2d_55">
    <g clip-path="url(#pfe815d29e3)">
     <use style="fill:#4c72b0;" x="228.481967213" xlink:href="#m328c24c56f" y="206.178"/>
    </g>
   </g>
   <g id="line2d_56">
    <g clip-path="url(#pfe815d29e3)">
     <use style="fill:#4c72b0;" x="240.556721311" xlink:href="#m328c24c56f" y="206.178"/>
    </g>
   </g>
   <g id="line2d_57">
    <g clip-path="url(#pfe815d29e3)">
     <use style="fill:#4c72b0;" x="234.519344262" xlink:href="#m7ac7130200" y="216.594"/>
    </g>
   </g>
   <g id="line2d_58">
    <g clip-path="url(#pfe815d29e3)">
     <use style="fill:#4c72b0;" x="234.519344262" xlink:href="#m7ac7130200" y="133.917"/>
    </g>
   </g>
   <g id="line2d_59">
    <g clip-path="url(#pfe815d29e3)">
     <use style="fill:#4c72b0;" x="234.519344262" xlink:href="#m4cece101e1" y="206.178"/>
    </g>
   </g>
   <g id="line2d_60">
    <path clip-path="url(#pfe815d29e3)" d="
M44.6164 97.1355
L47.3915 98.1238
L50.1666 99.1578
L52.9417 100.236
L55.7168 101.358
L58.4919 102.521
L61.267 103.725
L64.0421 104.968
L66.8172 106.249
L69.5923 107.567
L72.3674 108.92
L75.1425 110.308
L77.9176 111.728
L80.6927 113.18
L83.4677 114.662
L86.2428 116.174
L89.0179 117.713
L91.793 119.279
L94.5681 120.87
L97.3432 122.484
L100.118 124.122
L102.893 125.781
L105.669 127.46
L108.444 129.158
L111.219 130.873
L113.994 132.605
L116.769 134.352
L119.544 136.113
L122.319 137.886
L125.094 139.67
L127.869 141.464
L130.644 143.267
L133.419 145.077
L136.195 146.893
L138.97 148.715
L141.745 150.539
L144.52 152.366
L147.295 154.194
L150.07 156.021
L152.845 157.847
L155.62 159.671
L158.395 161.49
L161.17 163.303
L163.946 165.11
L166.721 166.909
L169.496 168.699
L172.271 170.478
L175.046 172.246
L177.821 174
L180.596 175.74
L183.371 177.465
L186.146 179.172
L188.921 180.862
L191.697 182.532
L194.472 184.181
L197.247 185.808
L200.022 187.412
L202.797 188.992
L205.572 190.546
L208.347 192.072
L211.122 193.57
L213.897 195.039
L216.672 196.476
L219.447 197.882
L222.223 199.254
L224.998 200.591
L227.773 201.892
L230.548 203.156
L233.323 204.381
L236.098 205.567
L238.873 206.711
L241.648 207.813
L244.423 208.871
L247.198 209.884
L249.974 210.851
L252.749 211.77
L255.524 212.641
L258.299 213.462
L261.074 214.231
L263.849 214.947
L266.624 215.61
L269.399 216.218
L272.174 216.769
L274.949 217.262
L277.725 217.696
L280.5 218.07
L283.275 218.383
L286.05 218.633
L288.825 218.818
L291.6 218.938" style="fill:none;stroke:#808080;stroke-dasharray:3.000000,5.000000,1.000000,5.000000;stroke-dashoffset:0.0;stroke-width:1.75;"/>
   </g>
   <g id="patch_3">
    <path d="
M40.5 25.2
L291.6 25.2" style="fill:none;stroke:#262626;stroke-linecap:square;stroke-linejoin:miter;stroke-width:1.25;"/>
   </g>
   <g id="patch_4">
    <path d="
M291.6 220.5
L291.6 25.2" style="fill:none;stroke:#262626;stroke-linecap:square;stroke-linejoin:miter;stroke-width:1.25;"/>
   </g>
   <g id="patch_5">
    <path d="
M40.5 220.5
L291.6 220.5" style="fill:none;stroke:#262626;stroke-linecap:square;stroke-linejoin:miter;stroke-width:1.25;"/>
   </g>
   <g id="patch_6">
    <path d="
M40.5 220.5
L40.5 25.2" style="fill:none;stroke:#262626;stroke-linecap:square;stroke-linejoin:miter;stroke-width:1.25;"/>
   </g>
   <g id="legend_1">
    <g id="line2d_61">
     <path d="
M207.019 37.8578
L227.019 37.8578" style="fill:none;stroke:#808080;stroke-dasharray:3.000000,5.000000,1.000000,5.000000;stroke-dashoffset:0.0;stroke-width:1.75;"/>
    </g>
    <g id="line2d_62"/>
    <g id="text_15">
     <!-- TK03.GAD -->
     <defs>
      <path d="
M-0.140625 0
L27.3438 71.5781
L37.5469 71.5781
L66.8438 0
L56.0625 0
L47.7031 21.6875
L17.7812 21.6875
L9.90625 0
z

M20.5156 29.3906
L44.7812 29.3906
L37.3125 49.2188
Q33.8906 58.25 32.2344 64.0625
Q30.8594 57.1719 28.375 50.3906
z
" id="ArialMT-41"/>
      <path d="
M7.32812 0
L7.32812 71.5781
L16.7969 71.5781
L16.7969 36.0781
L52.3438 71.5781
L65.1875 71.5781
L35.1562 42.5781
L66.5 0
L54 0
L28.5156 36.2344
L16.7969 24.8125
L16.7969 0
z
" id="ArialMT-4b"/>
      <path d="
M41.2188 28.0781
L41.2188 36.4688
L71.5312 36.5312
L71.5312 9.96875
Q64.5469 4.39062 57.125 1.57812
Q49.7031 -1.21875 41.8906 -1.21875
Q31.3438 -1.21875 22.7188 3.29688
Q14.1094 7.8125 9.71875 16.3594
Q5.32812 24.9062 5.32812 35.4531
Q5.32812 45.9062 9.6875 54.9531
Q14.0625 64.0156 22.2656 68.4062
Q30.4688 72.7969 41.1562 72.7969
Q48.9219 72.7969 55.1875 70.2812
Q61.4688 67.7812 65.0312 63.2812
Q68.6094 58.7969 70.4531 51.5625
L61.9219 49.2188
Q60.2969 54.6875 57.9062 57.8125
Q55.5156 60.9375 51.0625 62.8125
Q46.625 64.7031 41.2188 64.7031
Q34.7188 64.7031 29.9844 62.7188
Q25.25 60.75 22.3438 57.5156
Q19.4375 54.2969 17.8281 50.4375
Q15.0938 43.7969 15.0938 36.0312
Q15.0938 26.4688 18.3906 20.0156
Q21.6875 13.5781 27.9844 10.4531
Q34.2812 7.32812 41.3594 7.32812
Q47.5156 7.32812 53.375 9.6875
Q59.2344 12.0625 62.25 14.75
L62.25 28.0781
z
" id="ArialMT-47"/>
      <path d="
M25.9219 0
L25.9219 63.1406
L2.34375 63.1406
L2.34375 71.5781
L59.0781 71.5781
L59.0781 63.1406
L35.4062 63.1406
L35.4062 0
z
" id="ArialMT-54"/>
      <path d="
M7.71875 0
L7.71875 71.5781
L32.375 71.5781
Q40.7188 71.5781 45.125 70.5625
Q51.2656 69.1406 55.6094 65.4375
Q61.2812 60.6406 64.0781 53.1875
Q66.8906 45.75 66.8906 36.1875
Q66.8906 28.0312 64.9844 21.7344
Q63.0938 15.4375 60.1094 11.2969
Q57.125 7.17188 53.5781 4.79688
Q50.0469 2.4375 45.0469 1.21875
Q40.0469 0 33.5469 0
z

M17.1875 8.45312
L32.4688 8.45312
Q39.5469 8.45312 43.5781 9.76562
Q47.6094 11.0781 50 13.4844
Q53.375 16.8438 55.25 22.5312
Q57.125 28.2188 57.125 36.3281
Q57.125 47.5625 53.4375 53.5938
Q49.75 59.625 44.4844 61.6719
Q40.6719 63.1406 32.2344 63.1406
L17.1875 63.1406
z
" id="ArialMT-44"/>
     </defs>
     <g style="fill:#262626;" transform="translate(235.01875 41.3578125)scale(0.1 -0.1)">
      <use xlink:href="#ArialMT-54"/>
      <use x="61.083984375" xlink:href="#ArialMT-4b"/>
      <use x="127.783203125" xlink:href="#ArialMT-30"/>
      <use x="183.3984375" xlink:href="#ArialMT-33"/>
      <use x="239.013671875" xlink:href="#ArialMT-2e"/>
      <use x="266.796875" xlink:href="#ArialMT-47"/>
      <use x="344.580078125" xlink:href="#ArialMT-41"/>
      <use x="411.279296875" xlink:href="#ArialMT-44"/>
     </g>
    </g>
    <g id="LineCollection_15">
     <path d="
M212.019 52.0031
L222.019 52.0031" style="fill:none;stroke:#4c72b0;stroke-width:1.75;"/>
    </g>
    <g id="LineCollection_16">
     <path d="
M217.019 57.0031
L217.019 47.0031" style="fill:none;stroke:#4c72b0;stroke-width:1.75;"/>
    </g>
    <g id="line2d_63">
     <g>
      <use style="fill:#4c72b0;" x="212.01875" xlink:href="#m328c24c56f" y="52.003125"/>
     </g>
    </g>
    <g id="line2d_64">
     <g>
      <use style="fill:#4c72b0;" x="222.01875" xlink:href="#m328c24c56f" y="52.003125"/>
     </g>
    </g>
    <g id="line2d_65">
     <g>
      <use style="fill:#4c72b0;" x="217.01875" xlink:href="#m7ac7130200" y="57.003125"/>
     </g>
    </g>
    <g id="line2d_66">
     <g>
      <use style="fill:#4c72b0;" x="217.01875" xlink:href="#m7ac7130200" y="47.003125"/>
     </g>
    </g>
    <g id="line2d_67"/>
    <g id="line2d_68">
     <g>
      <use style="fill:#4c72b0;" x="217.01875" xlink:href="#m4cece101e1" y="52.003125"/>
     </g>
    </g>
    <g id="text_16">
     <!-- Ethiopia -->
     <defs>
      <path d="
M6.59375 0
L6.59375 71.5781
L15.375 71.5781
L15.375 45.9062
Q21.5312 53.0312 30.9062 53.0312
Q36.6719 53.0312 40.9219 50.75
Q45.1719 48.4844 47 44.4844
Q48.8281 40.4844 48.8281 32.8594
L48.8281 0
L40.0469 0
L40.0469 32.8594
Q40.0469 39.4531 37.1875 42.4531
Q34.3281 45.4531 29.1094 45.4531
Q25.2031 45.4531 21.75 43.4219
Q18.3125 41.4062 16.8438 37.9375
Q15.375 34.4688 15.375 28.375
L15.375 0
z
" id="ArialMT-68"/>
      <path d="
M6.59375 -19.875
L6.59375 51.8594
L14.5938 51.8594
L14.5938 45.125
Q17.4375 49.0781 21 51.0469
Q24.5625 53.0312 29.6406 53.0312
Q36.2812 53.0312 41.3594 49.6094
Q46.4375 46.1875 49.0156 39.9531
Q51.6094 33.7344 51.6094 26.3125
Q51.6094 18.3594 48.75 11.9844
Q45.9062 5.60938 40.4531 2.21875
Q35.0156 -1.17188 29 -1.17188
Q24.6094 -1.17188 21.1094 0.6875
Q17.625 2.54688 15.375 5.375
L15.375 -19.875
z

M14.5469 25.6406
Q14.5469 15.625 18.5938 10.8438
Q22.6562 6.0625 28.4219 6.0625
Q34.2812 6.0625 38.4531 11.0156
Q42.625 15.9688 42.625 26.375
Q42.625 36.2812 38.5469 41.2031
Q34.4688 46.1406 28.8125 46.1406
Q23.1875 46.1406 18.8594 40.8906
Q14.5469 35.6406 14.5469 25.6406" id="ArialMT-70"/>
     </defs>
     <g style="fill:#262626;" transform="translate(235.01875 55.503125)scale(0.1 -0.1)">
      <use xlink:href="#ArialMT-45"/>
      <use x="66.69921875" xlink:href="#ArialMT-74"/>
      <use x="94.482421875" xlink:href="#ArialMT-68"/>
      <use x="150.09765625" xlink:href="#ArialMT-69"/>
      <use x="172.314453125" xlink:href="#ArialMT-6f"/>
      <use x="227.9296875" xlink:href="#ArialMT-70"/>
      <use x="283.544921875" xlink:href="#ArialMT-69"/>
      <use x="305.76171875" xlink:href="#ArialMT-61"/>
     </g>
    </g>
    <g id="LineCollection_17">
     <path d="
M212.019 66.1484
L222.019 66.1484" style="fill:none;stroke:#55a868;stroke-width:1.75;"/>
    </g>
    <g id="LineCollection_18">
     <path d="
M217.019 71.1484
L217.019 61.1484" style="fill:none;stroke:#55a868;stroke-width:1.75;"/>
    </g>
    <g id="line2d_69">
     <g>
      <use style="fill:#55a868;" x="212.01875" xlink:href="#mcd9d4758c5" y="66.1484375"/>
     </g>
    </g>
    <g id="line2d_70">
     <g>
      <use style="fill:#55a868;" x="222.01875" xlink:href="#mcd9d4758c5" y="66.1484375"/>
     </g>
    </g>
    <g id="line2d_71">
     <g>
      <use style="fill:#55a868;" x="217.01875" xlink:href="#m5f8d520f21" y="71.1484375"/>
     </g>
    </g>
    <g id="line2d_72">
     <g>
      <use style="fill:#55a868;" x="217.01875" xlink:href="#m5f8d520f21" y="61.1484375"/>
     </g>
    </g>
    <g id="line2d_73"/>
    <g id="line2d_74">
     <g>
      <use style="fill:#55a868;" x="217.01875" xlink:href="#ma5e90d334b" y="66.1484375"/>
     </g>
    </g>
    <g id="text_17">
     <!-- Yemen -->
     <defs>
      <path d="
M27.875 0
L27.875 30.3281
L0.296875 71.5781
L11.8125 71.5781
L25.9219 50
Q29.8281 43.9531 33.2031 37.8906
Q36.4219 43.5 41.0156 50.5312
L54.8906 71.5781
L65.9219 71.5781
L37.3594 30.3281
L37.3594 0
z
" id="ArialMT-59"/>
      <path d="
M42.0938 16.7031
L51.1719 15.5781
Q49.0312 7.625 43.2188 3.21875
Q37.4062 -1.17188 28.375 -1.17188
Q17 -1.17188 10.3281 5.82812
Q3.65625 12.8438 3.65625 25.4844
Q3.65625 38.5781 10.3906 45.7969
Q17.1406 53.0312 27.875 53.0312
Q38.2812 53.0312 44.875 45.9531
Q51.4688 38.875 51.4688 26.0312
Q51.4688 25.25 51.4219 23.6875
L12.75 23.6875
Q13.2344 15.1406 17.5781 10.5938
Q21.9219 6.0625 28.4219 6.0625
Q33.25 6.0625 36.6719 8.59375
Q40.0938 11.1406 42.0938 16.7031
M13.2344 30.9062
L42.1875 30.9062
Q41.6094 37.4531 38.875 40.7188
Q34.6719 45.7969 27.9844 45.7969
Q21.9219 45.7969 17.7969 41.75
Q13.6719 37.7031 13.2344 30.9062" id="ArialMT-65"/>
      <path d="
M6.59375 0
L6.59375 51.8594
L14.4531 51.8594
L14.4531 44.5781
Q16.8906 48.3906 20.9375 50.7031
Q25 53.0312 30.1719 53.0312
Q35.9375 53.0312 39.625 50.6406
Q43.3125 48.25 44.8281 43.9531
Q50.9844 53.0312 60.8438 53.0312
Q68.5625 53.0312 72.7031 48.75
Q76.8594 44.4844 76.8594 35.5938
L76.8594 0
L68.1094 0
L68.1094 32.6719
Q68.1094 37.9375 67.25 40.25
Q66.4062 42.5781 64.1562 43.9844
Q61.9219 45.4062 58.8906 45.4062
Q53.4219 45.4062 49.7969 41.7656
Q46.1875 38.1406 46.1875 30.125
L46.1875 0
L37.4062 0
L37.4062 33.6875
Q37.4062 39.5469 35.25 42.4688
Q33.1094 45.4062 28.2188 45.4062
Q24.5156 45.4062 21.3594 43.4531
Q18.2188 41.5 16.7969 37.7344
Q15.375 33.9844 15.375 26.9062
L15.375 0
z
" id="ArialMT-6d"/>
     </defs>
     <g style="fill:#262626;" transform="translate(235.01875 69.6484375)scale(0.1 -0.1)">
      <use xlink:href="#ArialMT-59"/>
      <use x="57.57421875" xlink:href="#ArialMT-65"/>
      <use x="113.189453125" xlink:href="#ArialMT-6d"/>
      <use x="196.490234375" xlink:href="#ArialMT-65"/>
      <use x="252.10546875" xlink:href="#ArialMT-6e"/>
     </g>
    </g>
    <g id="LineCollection_19">
     <path d="
M212.019 80.2937
L222.019 80.2937" style="fill:none;stroke:#c44e52;stroke-width:1.75;"/>
    </g>
    <g id="LineCollection_20">
     <path d="
M217.019 85.2937
L217.019 75.2937" style="fill:none;stroke:#c44e52;stroke-width:1.75;"/>
    </g>
    <g id="line2d_75">
     <g>
      <use style="fill:#c44e52;" x="212.01875" xlink:href="#m50e53eb73a" y="80.29375"/>
     </g>
    </g>
    <g id="line2d_76">
     <g>
      <use style="fill:#c44e52;" x="222.01875" xlink:href="#m50e53eb73a" y="80.29375"/>
     </g>
    </g>
    <g id="line2d_77">
     <g>
      <use style="fill:#c44e52;" x="217.01875" xlink:href="#m0e00f869eb" y="85.29375"/>
     </g>
    </g>
    <g id="line2d_78">
     <g>
      <use style="fill:#c44e52;" x="217.01875" xlink:href="#m0e00f869eb" y="75.29375"/>
     </g>
    </g>
    <g id="line2d_79"/>
    <g id="line2d_80">
     <g>
      <use style="fill:#c44e52;" x="217.01875" xlink:href="#m838509e953" y="80.29375"/>
     </g>
    </g>
    <g id="text_18">
     <!-- Umkondo -->
     <defs>
      <path d="
M6.64062 0
L6.64062 71.5781
L15.4375 71.5781
L15.4375 30.7656
L36.2344 51.8594
L47.6094 51.8594
L27.7812 32.625
L49.6094 0
L38.7656 0
L21.625 26.5156
L15.4375 20.5625
L15.4375 0
z
" id="ArialMT-6b"/>
      <path d="
M40.2344 0
L40.2344 6.54688
Q35.2969 -1.17188 25.7344 -1.17188
Q19.5312 -1.17188 14.3281 2.25
Q9.125 5.67188 6.26562 11.7969
Q3.42188 17.9219 3.42188 25.875
Q3.42188 33.6406 6 39.9688
Q8.59375 46.2969 13.7656 49.6562
Q18.9531 53.0312 25.3438 53.0312
Q30.0312 53.0312 33.6875 51.0469
Q37.3594 49.0781 39.6562 45.9062
L39.6562 71.5781
L48.3906 71.5781
L48.3906 0
z

M12.4531 25.875
Q12.4531 15.9219 16.6406 10.9844
Q20.8438 6.0625 26.5625 6.0625
Q32.3281 6.0625 36.3438 10.7656
Q40.375 15.4844 40.375 25.1406
Q40.375 35.7969 36.2656 40.7656
Q32.1719 45.75 26.1719 45.75
Q20.3125 45.75 16.375 40.9688
Q12.4531 36.1875 12.4531 25.875" id="ArialMT-64"/>
      <path d="
M54.6875 71.5781
L64.1562 71.5781
L64.1562 30.2188
Q64.1562 19.4375 61.7188 13.0781
Q59.2812 6.73438 52.9062 2.75
Q46.5312 -1.21875 36.1875 -1.21875
Q26.125 -1.21875 19.7188 2.25
Q13.3281 5.71875 10.5938 12.2812
Q7.85938 18.8438 7.85938 30.2188
L7.85938 71.5781
L17.3281 71.5781
L17.3281 30.2812
Q17.3281 20.9531 19.0625 16.5312
Q20.7969 12.1094 25.0156 9.71875
Q29.25 7.32812 35.3594 7.32812
Q45.7969 7.32812 50.2344 12.0625
Q54.6875 16.7969 54.6875 30.2812
z
" id="ArialMT-55"/>
     </defs>
     <g style="fill:#262626;" transform="translate(235.01875 83.79375)scale(0.1 -0.1)">
      <use xlink:href="#ArialMT-55"/>
      <use x="72.216796875" xlink:href="#ArialMT-6d"/>
      <use x="155.517578125" xlink:href="#ArialMT-6b"/>
      <use x="205.517578125" xlink:href="#ArialMT-6f"/>
      <use x="261.1328125" xlink:href="#ArialMT-6e"/>
      <use x="316.748046875" xlink:href="#ArialMT-64"/>
      <use x="372.36328125" xlink:href="#ArialMT-6f"/>
     </g>
    </g>
    <g id="LineCollection_21">
     <path d="
M212.019 94.4391
L222.019 94.4391" style="fill:none;stroke:#8172b2;stroke-width:1.75;"/>
    </g>
    <g id="LineCollection_22">
     <path d="
M217.019 99.4391
L217.019 89.4391" style="fill:none;stroke:#8172b2;stroke-width:1.75;"/>
    </g>
    <g id="line2d_81">
     <g>
      <use style="fill:#8172b2;" x="212.01875" xlink:href="#m229199b47d" y="94.4390625"/>
     </g>
    </g>
    <g id="line2d_82">
     <g>
      <use style="fill:#8172b2;" x="222.01875" xlink:href="#m229199b47d" y="94.4390625"/>
     </g>
    </g>
    <g id="line2d_83">
     <g>
      <use style="fill:#8172b2;" x="217.01875" xlink:href="#mad6bdebe35" y="99.4390625"/>
     </g>
    </g>
    <g id="line2d_84">
     <g>
      <use style="fill:#8172b2;" x="217.01875" xlink:href="#mad6bdebe35" y="89.4390625"/>
     </g>
    </g>
    <g id="line2d_85"/>
    <g id="line2d_86">
     <g>
      <use style="fill:#8172b2;" x="217.01875" xlink:href="#m2be5bf9f90" y="94.4390625"/>
     </g>
    </g>
    <g id="text_19">
     <!-- NSVG -->
     <defs>
      <path d="
M4.5 23
L13.4219 23.7812
Q14.0625 18.4062 16.375 14.9688
Q18.7031 11.5312 23.5781 9.40625
Q28.4688 7.28125 34.5781 7.28125
Q39.9844 7.28125 44.1406 8.89062
Q48.2969 10.5 50.3125 13.2969
Q52.3438 16.1094 52.3438 19.4375
Q52.3438 22.7969 50.3906 25.3125
Q48.4375 27.8281 43.9531 29.5469
Q41.0625 30.6719 31.2031 33.0312
Q21.3438 35.4062 17.3906 37.5
Q12.25 40.1875 9.73438 44.1562
Q7.23438 48.1406 7.23438 53.0781
Q7.23438 58.5 10.2969 63.2031
Q13.375 67.9219 19.2812 70.3594
Q25.2031 72.7969 32.4219 72.7969
Q40.375 72.7969 46.4531 70.2344
Q52.5469 67.6719 55.8125 62.6875
Q59.0781 57.7188 59.3281 51.4219
L50.25 50.7344
Q49.5156 57.5156 45.2812 60.9844
Q41.0625 64.4531 32.8125 64.4531
Q24.2188 64.4531 20.2812 61.2969
Q16.3594 58.1562 16.3594 53.7188
Q16.3594 49.8594 19.1406 47.3594
Q21.875 44.875 33.4219 42.2656
Q44.9688 39.6562 49.2656 37.7031
Q55.5156 34.8125 58.4844 30.3906
Q61.4688 25.9844 61.4688 20.2188
Q61.4688 14.5 58.2031 9.4375
Q54.9375 4.39062 48.7969 1.57812
Q42.6719 -1.21875 35.0156 -1.21875
Q25.2969 -1.21875 18.7188 1.60938
Q12.1562 4.4375 8.42188 10.125
Q4.6875 15.8281 4.5 23" id="ArialMT-53"/>
      <path d="
M7.625 0
L7.625 71.5781
L17.3281 71.5781
L54.9375 15.375
L54.9375 71.5781
L64.0156 71.5781
L64.0156 0
L54.2969 0
L16.7031 56.25
L16.7031 0
z
" id="ArialMT-4e"/>
      <path d="
M28.1719 0
L0.4375 71.5781
L10.6875 71.5781
L29.2969 19.5781
Q31.5469 13.3281 33.0625 7.85938
Q34.7188 13.7188 36.9219 19.5781
L56.25 71.5781
L65.9219 71.5781
L37.8906 0
z
" id="ArialMT-56"/>
     </defs>
     <g style="fill:#262626;" transform="translate(235.01875 97.9390625)scale(0.1 -0.1)">
      <use xlink:href="#ArialMT-4e"/>
      <use x="72.216796875" xlink:href="#ArialMT-53"/>
      <use x="138.916015625" xlink:href="#ArialMT-56"/>
      <use x="205.615234375" xlink:href="#ArialMT-47"/>
     </g>
    </g>
    <g id="LineCollection_23">
     <path d="
M212.019 108.584
L222.019 108.584" style="fill:none;stroke:#ccb974;stroke-width:1.75;"/>
    </g>
    <g id="LineCollection_24">
     <path d="
M217.019 113.584
L217.019 103.584" style="fill:none;stroke:#ccb974;stroke-width:1.75;"/>
    </g>
    <g id="line2d_87">
     <g>
      <use style="fill:#ccb974;" x="212.01875" xlink:href="#m1acfb8dcb1" y="108.584375"/>
     </g>
    </g>
    <g id="line2d_88">
     <g>
      <use style="fill:#ccb974;" x="222.01875" xlink:href="#m1acfb8dcb1" y="108.584375"/>
     </g>
    </g>
    <g id="line2d_89">
     <g>
      <use style="fill:#ccb974;" x="217.01875" xlink:href="#m7624ec029c" y="113.584375"/>
     </g>
    </g>
    <g id="line2d_90">
     <g>
      <use style="fill:#ccb974;" x="217.01875" xlink:href="#m7624ec029c" y="103.584375"/>
     </g>
    </g>
    <g id="line2d_91"/>
    <g id="line2d_92">
     <g>
      <use style="fill:#ccb974;" x="217.01875" xlink:href="#m51ead04f67" y="108.584375"/>
     </g>
    </g>
    <g id="text_20">
     <!-- Deccan -->
     <g style="fill:#262626;" transform="translate(235.01875 112.084375)scale(0.1 -0.1)">
      <use xlink:href="#ArialMT-44"/>
      <use x="72.216796875" xlink:href="#ArialMT-65"/>
      <use x="127.83203125" xlink:href="#ArialMT-63"/>
      <use x="177.83203125" xlink:href="#ArialMT-63"/>
      <use x="227.83203125" xlink:href="#ArialMT-61"/>
      <use x="283.447265625" xlink:href="#ArialMT-6e"/>
     </g>
    </g>
    <g id="LineCollection_25">
     <path d="
M212.019 122.73
L222.019 122.73" style="fill:none;stroke:#64b5cd;stroke-width:1.75;"/>
    </g>
    <g id="LineCollection_26">
     <path d="
M217.019 127.73
L217.019 117.73" style="fill:none;stroke:#64b5cd;stroke-width:1.75;"/>
    </g>
    <g id="line2d_93">
     <g>
      <use style="fill:#64b5cd;" x="212.01875" xlink:href="#m548472b1cf" y="122.7296875"/>
     </g>
    </g>
    <g id="line2d_94">
     <g>
      <use style="fill:#64b5cd;" x="222.01875" xlink:href="#m548472b1cf" y="122.7296875"/>
     </g>
    </g>
    <g id="line2d_95">
     <g>
      <use style="fill:#64b5cd;" x="217.01875" xlink:href="#m3ede7d3480" y="127.7296875"/>
     </g>
    </g>
    <g id="line2d_96">
     <g>
      <use style="fill:#64b5cd;" x="217.01875" xlink:href="#m3ede7d3480" y="117.7296875"/>
     </g>
    </g>
    <g id="line2d_97"/>
    <g id="line2d_98">
     <g>
      <use style="fill:#64b5cd;" x="217.01875" xlink:href="#m9dbe2ddf97" y="122.7296875"/>
     </g>
    </g>
    <g id="text_21">
     <!-- Faroe -->
     <defs>
      <path d="
M6.5 0
L6.5 51.8594
L14.4062 51.8594
L14.4062 44
Q17.4375 49.5156 20 51.2656
Q22.5625 53.0312 25.6406 53.0312
Q30.0781 53.0312 34.6719 50.2031
L31.6406 42.0469
Q28.4219 43.9531 25.2031 43.9531
Q22.3125 43.9531 20.0156 42.2188
Q17.7188 40.4844 16.75 37.4062
Q15.2812 32.7188 15.2812 27.1562
L15.2812 0
z
" id="ArialMT-72"/>
      <path d="
M8.20312 0
L8.20312 71.5781
L56.5 71.5781
L56.5 63.1406
L17.6719 63.1406
L17.6719 40.9688
L51.2656 40.9688
L51.2656 32.5156
L17.6719 32.5156
L17.6719 0
z
" id="ArialMT-46"/>
     </defs>
     <g style="fill:#262626;" transform="translate(235.01875 126.2296875)scale(0.1 -0.1)">
      <use xlink:href="#ArialMT-46"/>
      <use x="61.083984375" xlink:href="#ArialMT-61"/>
      <use x="116.69921875" xlink:href="#ArialMT-72"/>
      <use x="150.0" xlink:href="#ArialMT-6f"/>
      <use x="205.615234375" xlink:href="#ArialMT-65"/>
     </g>
    </g>
    <g id="LineCollection_27">
     <path d="
M212.019 136.875
L222.019 136.875" style="fill:none;stroke:#4c72b0;stroke-width:1.75;"/>
    </g>
    <g id="LineCollection_28">
     <path d="
M217.019 141.875
L217.019 131.875" style="fill:none;stroke:#4c72b0;stroke-width:1.75;"/>
    </g>
    <g id="line2d_99">
     <g>
      <use style="fill:#4c72b0;" x="212.01875" xlink:href="#m328c24c56f" y="136.875"/>
     </g>
    </g>
    <g id="line2d_100">
     <g>
      <use style="fill:#4c72b0;" x="222.01875" xlink:href="#m328c24c56f" y="136.875"/>
     </g>
    </g>
    <g id="line2d_101">
     <g>
      <use style="fill:#4c72b0;" x="217.01875" xlink:href="#m7ac7130200" y="141.875"/>
     </g>
    </g>
    <g id="line2d_102">
     <g>
      <use style="fill:#4c72b0;" x="217.01875" xlink:href="#m7ac7130200" y="131.875"/>
     </g>
    </g>
    <g id="line2d_103"/>
    <g id="line2d_104">
     <g>
      <use style="fill:#4c72b0;" x="217.01875" xlink:href="#m4cece101e1" y="136.875"/>
     </g>
    </g>
    <g id="text_22">
     <!-- Kerguelen -->
     <defs>
      <path d="
M40.5781 0
L40.5781 7.625
Q34.5156 -1.17188 24.125 -1.17188
Q19.5312 -1.17188 15.5469 0.578125
Q11.5781 2.34375 9.64062 5
Q7.71875 7.67188 6.9375 11.5312
Q6.39062 14.1094 6.39062 19.7344
L6.39062 51.8594
L15.1875 51.8594
L15.1875 23.0938
Q15.1875 16.2188 15.7188 13.8125
Q16.5469 10.3594 19.2344 8.375
Q21.9219 6.39062 25.875 6.39062
Q29.8281 6.39062 33.2969 8.42188
Q36.7656 10.4531 38.2031 13.9375
Q39.6562 17.4375 39.6562 24.0781
L39.6562 51.8594
L48.4375 51.8594
L48.4375 0
z
" id="ArialMT-75"/>
     </defs>
     <g style="fill:#262626;" transform="translate(235.01875 140.375)scale(0.1 -0.1)">
      <use xlink:href="#ArialMT-4b"/>
      <use x="66.69921875" xlink:href="#ArialMT-65"/>
      <use x="122.314453125" xlink:href="#ArialMT-72"/>
      <use x="155.615234375" xlink:href="#ArialMT-67"/>
      <use x="211.23046875" xlink:href="#ArialMT-75"/>
      <use x="266.845703125" xlink:href="#ArialMT-65"/>
      <use x="322.4609375" xlink:href="#ArialMT-6c"/>
      <use x="344.677734375" xlink:href="#ArialMT-65"/>
      <use x="400.29296875" xlink:href="#ArialMT-6e"/>
     </g>
    </g>
   </g>
  </g>
 </g>
 <defs>
  <clipPath id="pfe815d29e3">
   <rect height="195.3" width="251.1" x="40.5" y="25.2"/>
  </clipPath>
 </defs>
</svg>
